{
	"asset":{
		"generator":"Khronos glTF Blender I/O v4.1.63",
		"version":"2.0"
	},
	"scene":0,
	"scenes":[
		{
			"name":"Scene",
			"nodes":[
				0,
				1,
				2,
				3,
				4,
				5
			]
		}
	],
	"nodes":[
		{
			"mesh":0,
			"name":"Cube"
		},
		{
			"name":"Empty",
			"rotation":[
				0.5,
				0.5,
				-0.5,
				0.5
			]
		},
		{
			"mesh":1,
			"name":"Cube.001"
		},
		{
			"mesh":2,
			"name":"Cylinder",
			"rotation":[
				0.4091504216194153,
				0.4091504216194153,
				-0.5767112970352173,
				0.5767113566398621
			],
			"scale":[
				-0.10894335061311722,
				-0.10894335061311722,
				-0.10894335061311722
			]
		},
		{
			"mesh":3,
			"name":"Cylinder.001",
			"rotation":[
				0.668355405330658,
				0.6683554649353027,
				-0.23087021708488464,
				0.23087024688720703
			],
			"scale":[
				-0.11221030354499817,
				-0.11221030354499817,
				-0.11221030354499817
			]
		},
		{
			"mesh":4,
			"name":"Cylinder.002",
			"rotation":[
				0.29207879304885864,
				0.2920788526535034,
				-0.6439642310142517,
				0.6439642906188965
			],
			"scale":[
				-0.12139135599136353,
				-0.12139133363962173,
				-0.12139135599136353
			]
		}
	],
	"materials":[
		{
			"doubleSided":true,
			"name":"Material.001",
			"pbrMetallicRoughness":{}
		},
		{
			"doubleSided":true,
			"name":"Material",
			"pbrMetallicRoughness":{
				"baseColorFactor":[
					0.11601302772760391,
					0.11601302772760391,
					0.11601302772760391,
					1
				],
				"roughnessFactor":0.23834197223186493
			}
		},
		{
			"doubleSided":true,
			"name":"Material.002",
			"pbrMetallicRoughness":{
				"baseColorFactor":[
					0.8001416921615601,
					0.4716159701347351,
					0.008618452586233616,
					1
				],
				"roughnessFactor":0.28238344192504883
			}
		}
	],
	"meshes":[
		{
			"name":"Cube",
			"primitives":[
				{
					"attributes":{
						"POSITION":0,
						"NORMAL":1,
						"TEXCOORD_0":2
					},
					"indices":3,
					"material":0
				}
			]
		},
		{
			"name":"Cube.001",
			"primitives":[
				{
					"attributes":{
						"POSITION":4,
						"NORMAL":5,
						"TEXCOORD_0":6
					},
					"indices":7,
					"material":1
				}
			]
		},
		{
			"name":"Cylinder.001",
			"primitives":[
				{
					"attributes":{
						"POSITION":8,
						"NORMAL":9,
						"TEXCOORD_0":10
					},
					"indices":11,
					"material":2
				}
			]
		},
		{
			"name":"Cylinder.002",
			"primitives":[
				{
					"attributes":{
						"POSITION":12,
						"NORMAL":13,
						"TEXCOORD_0":14
					},
					"indices":15,
					"material":2
				}
			]
		},
		{
			"name":"Cylinder.003",
			"primitives":[
				{
					"attributes":{
						"POSITION":16,
						"NORMAL":17,
						"TEXCOORD_0":18
					},
					"indices":15,
					"material":2
				}
			]
		}
	],
	"accessors":[
		{
			"bufferView":0,
			"componentType":5126,
			"count":176,
			"max":[
				0.13619869947433472,
				0.528102457523346,
				-0.22754377126693726
			],
			"min":[
				-0.13619869947433472,
				0.09738929569721222,
				-1.9144598245620728
			],
			"type":"VEC3"
		},
		{
			"bufferView":1,
			"componentType":5126,
			"count":176,
			"type":"VEC3"
		},
		{
			"bufferView":2,
			"componentType":5126,
			"count":176,
			"type":"VEC2"
		},
		{
			"bufferView":3,
			"componentType":5123,
			"count":402,
			"type":"SCALAR"
		},
		{
			"bufferView":4,
			"componentType":5126,
			"count":398,
			"max":[
				0.039781589061021805,
				0.592995822429657,
				1.7668266296386719
			],
			"min":[
				-0.039781589061021805,
				-0.48367416858673096,
				-0.33672261238098145
			],
			"type":"VEC3"
		},
		{
			"bufferView":5,
			"componentType":5126,
			"count":398,
			"type":"VEC3"
		},
		{
			"bufferView":6,
			"componentType":5126,
			"count":398,
			"type":"VEC2"
		},
		{
			"bufferView":7,
			"componentType":5123,
			"count":933,
			"type":"SCALAR"
		},
		{
			"bufferView":8,
			"componentType":5126,
			"count":60,
			"max":[
				-2.7564759254455566,
				1.312251091003418,
				4.018548011779785
			],
			"min":[
				-3.8719265460968018,
				-1.312251091003418,
				2.8489010334014893
			],
			"type":"VEC3"
		},
		{
			"bufferView":9,
			"componentType":5126,
			"count":60,
			"type":"VEC3"
		},
		{
			"bufferView":10,
			"componentType":5126,
			"count":60,
			"type":"VEC2"
		},
		{
			"bufferView":11,
			"componentType":5123,
			"count":96,
			"type":"SCALAR"
		},
		{
			"bufferView":12,
			"componentType":5126,
			"count":60,
			"max":[
				-7.020107269287109,
				1.284717082977295,
				-4.9916815757751465
			],
			"min":[
				-8.132962226867676,
				-1.284717082977295,
				-6.050069808959961
			],
			"type":"VEC3"
		},
		{
			"bufferView":13,
			"componentType":5126,
			"count":60,
			"type":"VEC3"
		},
		{
			"bufferView":14,
			"componentType":5126,
			"count":60,
			"type":"VEC2"
		},
		{
			"bufferView":15,
			"componentType":5123,
			"count":96,
			"type":"SCALAR"
		},
		{
			"bufferView":16,
			"componentType":5126,
			"count":60,
			"max":[
				-7.559319972991943,
				1.194249153137207,
				11.405268669128418
			],
			"min":[
				-8.672174453735352,
				-1.194249153137207,
				10.346879959106445
			],
			"type":"VEC3"
		},
		{
			"bufferView":17,
			"componentType":5126,
			"count":60,
			"type":"VEC3"
		},
		{
			"bufferView":18,
			"componentType":5126,
			"count":60,
			"type":"VEC2"
		}
	],
	"bufferViews":[
		{
			"buffer":0,
			"byteLength":2112,
			"byteOffset":0,
			"target":34962
		},
		{
			"buffer":0,
			"byteLength":2112,
			"byteOffset":2112,
			"target":34962
		},
		{
			"buffer":0,
			"byteLength":1408,
			"byteOffset":4224,
			"target":34962
		},
		{
			"buffer":0,
			"byteLength":804,
			"byteOffset":5632,
			"target":34963
		},
		{
			"buffer":0,
			"byteLength":4776,
			"byteOffset":6436,
			"target":34962
		},
		{
			"buffer":0,
			"byteLength":4776,
			"byteOffset":11212,
			"target":34962
		},
		{
			"buffer":0,
			"byteLength":3184,
			"byteOffset":15988,
			"target":34962
		},
		{
			"buffer":0,
			"byteLength":1866,
			"byteOffset":19172,
			"target":34963
		},
		{
			"buffer":0,
			"byteLength":720,
			"byteOffset":21040,
			"target":34962
		},
		{
			"buffer":0,
			"byteLength":720,
			"byteOffset":21760,
			"target":34962
		},
		{
			"buffer":0,
			"byteLength":480,
			"byteOffset":22480,
			"target":34962
		},
		{
			"buffer":0,
			"byteLength":192,
			"byteOffset":22960,
			"target":34963
		},
		{
			"buffer":0,
			"byteLength":720,
			"byteOffset":23152,
			"target":34962
		},
		{
			"buffer":0,
			"byteLength":720,
			"byteOffset":23872,
			"target":34962
		},
		{
			"buffer":0,
			"byteLength":480,
			"byteOffset":24592,
			"target":34962
		},
		{
			"buffer":0,
			"byteLength":192,
			"byteOffset":25072,
			"target":34963
		},
		{
			"buffer":0,
			"byteLength":720,
			"byteOffset":25264,
			"target":34962
		},
		{
			"buffer":0,
			"byteLength":720,
			"byteOffset":25984,
			"target":34962
		},
		{
			"buffer":0,
			"byteLength":480,
			"byteOffset":26704,
			"target":34962
		}
	],
	"buffers":[
		{
			"byteLength":27184,
			"uri":"butcherknife-2d8d439446b092c2d84eb3a8b30b6cab.bin"
		}
	]
}
